<svg xmlns="http://www.w3.org/2000/svg" width="400" height="120" viewBox="0 0 400 120">
  <path d="M82.3 88.7c-10.5 0-18.2-11.4-18.2-21s7.7-21 18.2-21c3.5 0 13 4.1 11.4 16h-8.8c0.5-3-1.7-6.5-4.5-6.5-4.6 0-7.2 7.2-7.2 11.5 0 4.2 2.6 11.5 7.2 11.5 2.7 0 5.3-2.4 4.5-5h8.8C92.4 81.2 86.8 88.7 82.3 88.7z" fill="#fff"/>
  <path d="M104 76h12v-3h-12v3z" fill="#fff"/>
  <path d="M104 46h12v-3h-12v3z" fill="#fff"/>
  <path d="M104 61h18v-3h-18v3z" fill="#fff"/>
  <path d="M128 88l-18-52 7-3 11 37 10-37 6 3-16 52z" fill="#fff"/>
  <path d="M225 50c0-2.2-0.7-3.9-2.2-5.1-1.5-1.2-3.7-1.8-6.6-1.8h-6.5V57h6.5c2.9 0 5.1-0.6 6.6-1.8 1.5-1.2 2.2-2.9 2.2-5.2zm4.8 0c0 4-1.2 7-3.7 9.1-2.5 2.1-6 3.1-10.6 3.1h-5.8v15.7h-5.1V38.3h11.8c4.4 0 7.8 1 10.1 3.1 2.2 2 3.3 4.9 3.3 8.6z" fill="#fff"/>
  <path d="M247.3 78.6c3.7 0 6.6-1.2 8.6-3.5 2-2.3 3-5.6 3-9.9V38.3h5v26.9c0 5.7-1.5 10.1-4.6 13.2-3.1 3.1-7.1 4.6-12.1 4.6s-9.1-1.5-12.1-4.6c-3.1-3.1-4.6-7.5-4.6-13.2V38.3h5v26.9c0 4.3 1 7.6 3 9.9 2 2.3 4.8 3.5 8.8 3.5z" fill="#fff"/>
  <path d="M297.7 56.3c0-3.2-0.9-5.7-2.7-7.5-1.8-1.8-4.3-2.7-7.5-2.7-2.2 0-4.1 0.4-5.9 1.3-1.7 0.9-3.1 2.1-4 3.7-0.9 1.6-1.4 3.5-1.4 5.5 0 2.2 0.5 4 1.4 5.5 0.9 1.5 2.2 2.7 3.8 3.5 1.6 0.8 3.5 1.2 5.6 1.2 2.1 0 3.9-0.4 5.6-1.2 1.6-0.8 2.9-1.9 3.8-3.5 0.9-1.5 1.3-3.4 1.3-5.8zm5 21.6h-4.5v-8.4c-1.1 2.1-2.8 3.7-5 4.9-2.2 1.1-4.6 1.7-7.2 1.7-3 0-5.7-0.7-8.1-2.2-2.4-1.4-4.2-3.4-5.6-6-1.3-2.5-2-5.4-2-8.6 0-3.2 0.7-6 2-8.6 1.3-2.5 3.2-4.5 5.6-5.9 2.4-1.4 5.1-2.1 8.1-2.1 2.7 0 5.1 0.6 7.3 1.8 2.2 1.2 3.8 2.8 4.9 4.9v-5.9h4.5v34.4z" fill="#fff"/>
  <path d="M328.2 77.9h-4.5V57l-14.8 20.9h-4.9V42.5h4.5v20.9l14.7-20.9h5v35.4z" fill="#fff"/>
  <path d="M354.1 67.9h-19.8c0.3 2.9 1.5 5.2 3.4 6.9 2 1.7 4.4 2.5 7.5 2.5 1.7 0 3.3-0.3 4.7-0.9 1.4-0.6 2.7-1.5 3.7-2.7l2.7 3c-1.3 1.6-3 2.8-5 3.7-2 0.8-4.2 1.3-6.6 1.3-3 0-5.7-0.7-8-2-2.3-1.3-4.1-3.2-5.4-5.6-1.3-2.4-1.9-5.1-1.9-8.1 0-3 0.6-5.6 1.9-8 1.3-2.4 3-4.3 5.2-5.6 2.2-1.3 4.7-2 7.5-2 2.8 0 5.3 0.7 7.5 2 2.2 1.3 3.9 3.2 5.1 5.6 1.2 2.4 1.8 5.2 1.8 8.3l-0.1 1.6zm-17.4-11.5c-1.8 1.6-2.9 3.8-3.2 6.5h15.9c-0.3-2.7-1.3-4.9-3.1-6.5-1.8-1.6-4-2.4-6.7-2.4-2.7 0-5 0.8-6.9 2.4z" fill="#fff"/>
  <path d="M370.4 47.9c1.1-1.9 2.6-3.4 4.5-4.5 1.9-1.1 4.1-1.6 6.6-1.6v4.8l-1.2-0.1c-3 0-5.3 0.9-7 2.8-1.7 1.9-2.5 4.5-2.5 8v20.6h-4.5V42.5h4.1v5.4z" fill="#fff"/>
  <path d="M382.3 77.9l8.8-17.9-13-24.2h5.2l10.5 20 10.5-20h5.2l-22 42.1h-5.2z" fill="#fff"/>
  <path d="M183.2 77.9h-4.5V45.3h-11.3v-3.9h27.2v3.9h-11.4v32.6z" fill="#fff"/>
  <path d="M200.2 77.9h-5.1l14.8-39.6h4.9l14.8 39.6h-5.1l-3.6-10h-16.9l-3.8 10zm8.1-22.2h13.3l-6.6-18.2-6.7 18.2z" fill="#fff"/>
  <path fill-rule="evenodd" clip-rule="evenodd" d="M81.9 20c-24.8 0-45 20.2-45 45 0 24.8 20.2 45 45 45h0.8c24.8 0 45-20.2 45-45 0-24.8-20.2-45-45-45h-0.8zm0.4 10c-19.3 0-35 15.7-35 35s15.7 35 35 35 35-15.7 35-35-15.7-35-35-35z" fill="#fff"/>
  <path d="M83 10l15 15 15-15M83 112l15-15 15 15" fill="#fff"/>
</svg>