<svg width="512" height="512" viewBox="0 0 512 512" fill="none" xmlns="http://www.w3.org/2000/svg">
  <path d="M256 143C211.5 143 175 179.5 175 224C175 268.5 211.5 305 256 305C300.5 305 337 268.5 337 224C337 179.5 300.5 143 256 143ZM256 280C225.3 280 200 254.7 200 224C200 193.3 225.3 168 256 168C286.7 168 312 193.3 312 224C312 254.7 286.7 280 256 280Z" fill="black"/>
  <path d="M349.7 341.3C331.7 323.3 308.2 313 283.3 313H228.7C203.8 313 180.3 323.3 162.3 341.3C144.3 359.3 134 382.8 134 407.7H163C163 392.8 169 378.6 179.7 367.9C190.4 357.2 204.7 351.2 219.5 351.2H292.5C307.3 351.2 321.6 357.2 332.3 367.9C343 378.6 349 392.8 349 407.7H378C378 382.8 367.7 359.3 349.7 341.3Z" fill="black"/>
</svg> 